Coordinates
version=1
nRows=9
nColumns=63
inDegrees=yes

Units are S.I. units (second, meters, Newtons, ...)
If the header above contains a line with 'inDegrees', this indicates whether rotational values are in degrees (yes) or radians (no).

endheader
time	pelvis_tilt	pelvis_list	pelvis_rotation	pelvis_tx	pelvis_ty	pelvis_tz	hip_flexion_r	hip_adduction_r	hip_rotation_r	knee_angle_r	knee_angle_r_beta	ankle_angle_r	subtalar_angle_r	mtp_angle_r	hip_flexion_l	hip_adduction_l	hip_rotation_l	knee_angle_l	knee_angle_l_beta	ankle_angle_l	subtalar_angle_l	mtp_angle_l	L5_S1_Flex_Ext	L5_S1_Lat_Bending	L5_S1_axial_rotation	L4_L5_Flex_Ext	L4_L5_Lat_Bending	L4_L5_axial_rotation	L3_L4_Flex_Ext	L3_L4_Lat_Bending	L3_L4_axial_rotation	L2_L3_Flex_Ext	L2_L3_Lat_Bending	L2_L3_axial_rotation	L1_L2_Flex_Ext	L1_L2_Lat_Bending	L1_L2_axial_rotation	L1_T12_Flex_Ext	L1_T12_Lat_Bending	L1_T12_axial_rotation	Abs_r3	Abs_r2	Abs_r1	Abs_t1	Abs_t2	neck_flexion	neck_bending	neck_rotation	arm_flex_r	arm_add_r	arm_rot_r	elbow_flex_r	pro_sup_r	wrist_flex_r	wrist_dev_r	arm_flex_l	arm_add_l	arm_rot_l	elbow_flex_l	pro_sup_l	wrist_flex_l	wrist_dev_l
      6.76666667	     -6.45841078	      3.32899643	     93.32821221	      0.21395052	      1.16779770	      0.52838236	     -0.22219257	     -4.78221458	     -9.24585804	      6.44809558	      0.11254050	      6.32988681	     17.85319774	      0.00000000	     -0.69016250	      2.88791592	    -22.97870749	      4.87522138	      0.08508866	     -4.92078319	     16.96449173	      0.00000000	     -0.67122466	     -0.32115530	     -1.15567364	     -1.24653131	     -0.42713655	     -1.22790324	     -1.10275499	     -0.78085700	     -1.22790324	     -0.76714266	     -0.78085700	     -1.01121443	     -0.62329922	     -0.65489989	     -0.93898483	     -0.38353777	     -0.49746956	     -0.86675523	     -4.79449060	     -3.63297299	     -6.42751006	      0.00000000	      0.00000000	    -18.65974217	     -5.19116482	     11.74751903	     31.39153627	     11.83479385	    174.61923194	      0.04363995	      0.52603466	    -69.91522455	    -24.62854390	     24.14352718	    -10.88169645	    162.05269297	      0.04980811	      0.50314734	    -69.90810899	    -24.60054124
      6.78333333	     -6.33561441	      3.27125202	     93.57616122	      0.21327488	      1.16761699	      0.52904231	     -0.14620615	     -4.67289035	     -9.63111998	      6.47247817	      0.11296605	      6.42614068	     17.92081110	      0.00000000	     -0.58009729	      2.78621829	    -22.49367323	      4.86591204	      0.08492619	     -5.00681238	     16.61894290	      0.00000000	     -0.68222393	     -0.30112286	     -1.21372927	     -1.26695807	     -0.40049340	     -1.28958735	     -1.12082570	     -0.73215012	     -1.28958735	     -0.77971373	     -0.73215012	     -1.06201312	     -0.63351314	     -0.61404973	     -0.98615504	     -0.38982276	     -0.46643931	     -0.91029696	     -4.87305733	     -3.40636201	     -6.75039811	      0.00000000	      0.00000000	    -19.05590560	     -5.52258372	     11.15645276	     31.44900671	     11.80606627	    174.27409872	      0.04345580	      0.52814541	    -69.91567738	    -24.63352409	     24.12202995	    -10.49549208	    160.11455833	      0.05003138	      0.51814157	    -69.90833668	    -24.61120676
      6.80000000	     -6.27979197	      3.26166650	     93.90054339	      0.21278064	      1.16755728	      0.53010648	     -0.11712062	     -4.61321064	     -9.97086993	      6.49028907	      0.11327691	      6.50494206	     17.89285922	      0.00000000	     -0.46422246	      2.71886361	    -22.10067625	      4.90134104	      0.08554454	     -4.97149792	     16.66081720	      0.00000000	     -0.69860154	     -0.29018861	     -1.24530814	     -1.29737291	     -0.38595085	     -1.32313990	     -1.14773247	     -0.70556459	     -1.32313990	     -0.79843170	     -0.70556459	     -1.08964462	     -0.64872139	     -0.59175261	     -1.01181286	     -0.39918092	     -0.44950216	     -0.93398110	     -4.99004092	     -3.28267160	     -6.92603026	      0.00000000	      0.00000000	    -19.40725728	     -5.48142450	     10.70929178	     31.51129321	     11.73443130	    173.50982710	      0.04307328	      0.52025962	    -69.91622356	    -24.63586501	     24.50353550	    -10.31721074	    159.69521049	      0.04975250	      0.50629010	    -69.90911445	    -24.60746021
      6.81666667	     -6.29144762	      3.26760027	     93.94372787	      0.21272584	      1.16761474	      0.53149966	     -0.05018863	     -4.62689138	     -9.98765654	      6.48947557	      0.11326272	      6.50729053	     17.89814456	      0.00000000	     -0.36539225	      2.73721626	    -21.99828574	      4.87222595	      0.08503638	     -4.90026081	     16.73967256	      0.00000000	     -0.71212875	     -0.28363475	     -1.24937819	     -1.32249431	     -0.37723422	     -1.32746433	     -1.16995633	     -0.68962953	     -1.32746433	     -0.81389195	     -0.68962953	     -1.09320592	     -0.66128276	     -0.57838798	     -1.01511978	     -0.40691037	     -0.43935023	     -0.93703365	     -5.08666448	     -3.20853303	     -6.94866671	      0.00000000	      0.00000000	    -19.64777279	     -5.54785307	     10.72420043	     31.67447782	     11.69421558	    173.32284384	      0.04253476	      0.49092224	    -69.91650601	    -24.63194176	     24.97956961	    -10.35623372	    159.64651995	      0.04933482	      0.50088524	    -69.91046706	    -24.61517159
      6.83333333	     -6.24573225	      3.42036445	     94.49959238	      0.21234830	      1.16806549	      0.53297083	     -0.22096393	     -4.54486510	    -10.52482612	      6.49192204	      0.11330541	      6.45566527	     17.81920495	      0.00000000	     -0.34067436	      2.62558819	    -21.42209233	      4.98781416	      0.08705378	     -4.68928518	     17.11784338	      0.00000000	     -0.74244717	     -0.27274635	     -1.25727698	     -1.37879864	     -0.36275265	     -1.33585680	     -1.21976646	     -0.66315548	     -1.33585680	     -0.84854287	     -0.66315548	     -1.10011736	     -0.68943644	     -0.55618436	     -1.02153755	     -0.42423431	     -0.42248410	     -0.94295774	     -5.30322589	     -3.08536128	     -6.99259741	      0.00000000	      0.00000000	    -19.86938431	     -5.38899226	     10.25124597	     31.64858293	     11.59033491	    171.10285132	      0.04235058	      0.50824578	    -69.91683448	    -24.64144569	     25.78594130	    -10.35146225	    160.44650943	      0.04869980	      0.51507399	    -69.91202151	    -24.61746842
      6.85000000	     -6.28613295	      3.53995283	     94.77836187	      0.21241230	      1.16867235	      0.53459624	     -0.32393713	     -4.56005139	    -10.87202236	      6.45095843	      0.11259046	      6.29059709	     17.89162214	      0.00000000	     -0.31871607	      2.63397631	    -21.07198954	      4.99240708	      0.08713394	     -4.71355057	     17.26448355	      0.00000000	     -0.76239723	     -0.27350190	     -1.18894562	     -1.41584790	     -0.36375752	     -1.26325473	     -1.25254242	     -0.66499251	     -1.26325473	     -0.87134380	     -0.66499251	     -1.04032742	     -0.70796207	     -0.55772507	     -0.96601832	     -0.43563378	     -0.42365444	     -0.89170922	     -5.44572721	     -3.09390815	     -6.61255888	      0.00000000	      0.00000000	    -20.04722103	     -5.09904155	      9.79735108	     31.64715327	     11.33878508	    169.39359798	      0.04199343	      0.50115822	    -69.91725071	    -24.64273292	     26.78947814	    -10.42257537	    162.10761045	      0.04791919	      0.52273746	    -69.91385498	    -24.62399548
      6.86666667	     -6.30611725	      3.71300668	     94.97853274	      0.21249343	      1.16946586	      0.53623154	     -0.45310873	     -4.55681815	    -11.09237001	      6.44661324	      0.11251463	      6.09234439	     17.89567347	      0.00000000	     -0.35084517	      2.61294229	    -20.88315789	      5.03049515	      0.08779870	     -4.79682522	     17.40062396	      0.00000000	     -0.78626164	     -0.27516321	     -1.05490584	     -1.46016650	     -0.36596707	     -1.12083745	     -1.29174925	     -0.66903183	     -1.12083745	     -0.89861843	     -0.66903183	     -0.92304261	     -0.73012256	     -0.56111282	     -0.85711099	     -0.44926990	     -0.42622781	     -0.79117938	     -5.61618829	     -3.11270125	     -5.86706981	      0.00000000	      0.00000000	    -20.18345774	     -4.62500573	      8.98401753	     31.64727223	     10.83990021	    167.57314016	      0.04152684	      0.48536173	    -69.91769409	    -24.64281383	     28.07387960	    -10.33173577	    163.81244660	      0.04708763	      0.54340282	    -69.91542702	    -24.63844749
      6.88333333	     -6.34715328	      3.87365075	     95.04115946	      0.21271726	      1.17029221	      0.53775282	     -0.52425108	     -4.58844937	    -11.21435695	      6.49604292	      0.11337734	      5.88939256	     17.93362554	      0.00000000	     -0.40617818	      2.62554000	    -20.89992772	      5.06282742	      0.08836301	     -5.00947899	     17.40472683	      0.00000000	     -0.80523509	     -0.28675411	     -0.85440956	     -1.49540209	     -0.38138296	     -0.90781016	     -1.32292073	     -0.69721394	     -0.90781016	     -0.92030319	     -0.69721394	     -0.74760837	     -0.74774131	     -0.58474898	     -0.69420777	     -0.46011133	     -0.44418211	     -0.64080717	     -5.75171375	     -3.24381983	     -4.75196966	      0.00000000	      0.00000000	    -20.28708011	     -4.00017987	      7.91990593	     31.62383915	     10.13654975	    165.58138387	      0.04123074	      0.48252761	    -69.91784168	    -24.64013174	     29.68533835	    -10.10088638	    165.73861254	      0.04643468	      0.55061358	    -69.91651387	    -24.64144606
      6.90000000	     -6.31597593	      4.09353431	     95.09738741	      0.21269072	      1.17116919	      0.53920932	     -0.65309144	     -4.54657185	    -11.35306685	      6.53400081	      0.11403983	      5.61584236	     17.94905515	      0.00000000	     -0.53595976	      2.56255898	    -20.93629485	      5.11880080	      0.08933993	     -5.18857476	     17.37659534	      0.00000000	     -0.83208678	     -0.29784245	     -0.63101184	     -1.54526835	     -0.39613046	     -0.67045008	     -1.36703536	     -0.72417414	     -0.67045008	     -0.95099198	     -0.72417414	     -0.55213536	     -0.77267578	     -0.60736033	     -0.51269712	     -0.47545438	     -0.46135796	     -0.47325888	     -5.94351263	     -3.36925342	     -3.50949854	      0.00000000	      0.00000000	    -20.32993946	     -3.15254571	      6.56355493	     31.61936434	      9.20803566	    163.80806622	      0.04078456	      0.47787586	    -69.91808399	    -24.63635821	     31.54260871	     -9.62468240	    167.13850295	      0.04598711	      0.56354232	    -69.91709932	    -24.64543815
